# xmcd
#
# Track frame offsets:
#	180
#	10645
#	25414
#	33065
#	57737
#	68392
#	79114
#	91638
#	105698
#	115490
#	126784
#	142867
#	153662
#
# Disc length: 2223 seconds
#
# Revision: 1
# Processed by: cddbd v1.5.1PL2 Copyright (c) Steve Scherf et al.
# Submitted via: audiograbber 1.83.01
#
DISCID=9b08ad0d
DTITLE=Chicken´s Law - Traditional Blues
DYEAR=1900
DGENRE=Blues
TTITLE0=Keep Movin´ On
TTITLE1=Back In Your Town
TTITLE2=Chicken Harrie´s Boogie
TTITLE3=Red Rooster
TTITLE4=Sitting In Top Of The World
TTITLE5=Old Folks Talk
TTITLE6=Back On The Road
TTITLE7=Riding In The Sunshine
TTITLE8=Boogie Chillen
TTITLE9=Buddy´s Rag
TTITLE10=John Henry
TTITLE11=Chicken´s Revenge
TTITLE12=Key To The Highway
EXTD=
EXTT0=
EXTT1=
EXTT2=
EXTT3=
EXTT4=
EXTT5=
EXTT6=
EXTT7=
EXTT8=
EXTT9=
EXTT10=
EXTT11=
EXTT12=
PLAYORDER=
